<svg xmlns="http://www.w3.org/2000/svg" viewBox="0 0 512 512">
  <defs>
    <radialGradient id="bg" cx="35%" cy="25%" r="80%">
      <stop offset="0" stop-color="#20384f"/>
      <stop offset="0.55" stop-color="#07111b"/>
      <stop offset="1" stop-color="#02060a"/>
    </radialGradient>
    <linearGradient id="g" x1="130" y1="90" x2="390" y2="420">
      <stop offset="0" stop-color="#9cff73"/>
      <stop offset="0.45" stop-color="#42d36f"/>
      <stop offset="1" stop-color="#1a8f49"/>
    </linearGradient>
    <filter id="shadow" x="-20%" y="-20%" width="140%" height="140%">
      <feDropShadow dx="0" dy="16" stdDeviation="18" flood-color="#000" flood-opacity="0.45"/>
    </filter>
  </defs>
  <rect width="512" height="512" rx="108" fill="url(#bg)"/>
  <circle cx="256" cy="256" r="184" fill="none" stroke="#69d2c4" stroke-width="12" opacity="0.55"/>
  <path filter="url(#shadow)" d="M326 139c-27-27-74-31-113-13-43 20-65 58-57 93 6 28 30 47 70 58l47 13c23 6 34 17 31 31-4 18-29 29-60 25-30-4-52-20-64-45l-58 31c19 44 62 70 117 72 69 3 125-30 134-82 8-47-18-82-76-99l-50-15c-23-7-31-15-28-28 4-17 28-27 54-22 22 4 38 14 51 31z" fill="url(#g)"/>
  <path d="M334 134c-24-20-62-25-96-12 40 5 71 28 78 61l55-24c-8-10-20-18-37-25z" fill="#c9ff9b" opacity="0.75"/>
  <circle cx="316" cy="154" r="13" fill="#07111b"/>
  <circle cx="320" cy="150" r="4" fill="#f7f9fc"/>
  <text x="256" y="452" text-anchor="middle" font-family="Arial, sans-serif" font-size="78" font-weight="900" fill="#f7f9fc" letter-spacing="-4">TC</text>
</svg>
